<mxfile host="app.diagrams.net" modified="2024-07-19T00:24:20.157Z" agent="Mozilla/5.0 (Windows NT 10.0; Win64; x64) AppleWebKit/537.36 (KHTML, like Gecko) Chrome/126.0.0.0 Safari/537.36" etag="VmZ1GW0DxPx8DkhOvxXJ" version="24.7.1" type="device">
  <diagram name="PÃ¡gina-1" id="KIUgWpRxBzeenqIqTrez">
    <mxGraphModel dx="1434" dy="746" grid="1" gridSize="10" guides="1" tooltips="1" connect="1" arrows="1" fold="1" page="1" pageScale="1" pageWidth="827" pageHeight="1169" math="0" shadow="0">
      <root>
        <mxCell id="0" />
        <mxCell id="1" parent="0" />
        <mxCell id="-En4X2_4c3ANfAnvm6Ov-9" value="" style="edgeStyle=orthogonalEdgeStyle;rounded=0;orthogonalLoop=1;jettySize=auto;html=1;" edge="1" parent="1" source="-En4X2_4c3ANfAnvm6Ov-1" target="-En4X2_4c3ANfAnvm6Ov-8">
          <mxGeometry relative="1" as="geometry" />
        </mxCell>
        <mxCell id="-En4X2_4c3ANfAnvm6Ov-1" value="inicio" style="ellipse;whiteSpace=wrap;html=1;" vertex="1" parent="1">
          <mxGeometry x="270" y="40" width="120" height="80" as="geometry" />
        </mxCell>
        <mxCell id="-En4X2_4c3ANfAnvm6Ov-5" value="&lt;h1 style=&quot;margin-top: 0px;&quot;&gt;Numeros primos&lt;/h1&gt;&lt;p&gt;Encontrar si un numero es primo, Usar IF y FOR&lt;/p&gt;" style="text;html=1;whiteSpace=wrap;overflow=hidden;rounded=0;" vertex="1" parent="1">
          <mxGeometry x="600" y="20" width="180" height="120" as="geometry" />
        </mxCell>
        <mxCell id="-En4X2_4c3ANfAnvm6Ov-11" value="" style="edgeStyle=orthogonalEdgeStyle;rounded=0;orthogonalLoop=1;jettySize=auto;html=1;" edge="1" parent="1" source="-En4X2_4c3ANfAnvm6Ov-8" target="-En4X2_4c3ANfAnvm6Ov-10">
          <mxGeometry relative="1" as="geometry" />
        </mxCell>
        <mxCell id="-En4X2_4c3ANfAnvm6Ov-8" value="" style="whiteSpace=wrap;html=1;" vertex="1" parent="1">
          <mxGeometry x="270" y="210" width="120" height="60" as="geometry" />
        </mxCell>
        <mxCell id="-En4X2_4c3ANfAnvm6Ov-13" value="" style="edgeStyle=orthogonalEdgeStyle;rounded=0;orthogonalLoop=1;jettySize=auto;html=1;" edge="1" parent="1" source="-En4X2_4c3ANfAnvm6Ov-10" target="-En4X2_4c3ANfAnvm6Ov-12">
          <mxGeometry relative="1" as="geometry" />
        </mxCell>
        <mxCell id="-En4X2_4c3ANfAnvm6Ov-15" value="" style="edgeStyle=orthogonalEdgeStyle;rounded=0;orthogonalLoop=1;jettySize=auto;html=1;" edge="1" parent="1" source="-En4X2_4c3ANfAnvm6Ov-10" target="-En4X2_4c3ANfAnvm6Ov-14">
          <mxGeometry relative="1" as="geometry" />
        </mxCell>
        <mxCell id="-En4X2_4c3ANfAnvm6Ov-10" value="" style="rhombus;whiteSpace=wrap;html=1;" vertex="1" parent="1">
          <mxGeometry x="290" y="340" width="80" height="80" as="geometry" />
        </mxCell>
        <mxCell id="-En4X2_4c3ANfAnvm6Ov-24" value="" style="edgeStyle=orthogonalEdgeStyle;rounded=0;orthogonalLoop=1;jettySize=auto;html=1;" edge="1" parent="1" source="-En4X2_4c3ANfAnvm6Ov-12" target="-En4X2_4c3ANfAnvm6Ov-23">
          <mxGeometry relative="1" as="geometry" />
        </mxCell>
        <mxCell id="-En4X2_4c3ANfAnvm6Ov-12" value="" style="whiteSpace=wrap;html=1;" vertex="1" parent="1">
          <mxGeometry x="430" y="350" width="120" height="60" as="geometry" />
        </mxCell>
        <mxCell id="-En4X2_4c3ANfAnvm6Ov-17" style="edgeStyle=orthogonalEdgeStyle;rounded=0;orthogonalLoop=1;jettySize=auto;html=1;entryX=0;entryY=0.5;entryDx=0;entryDy=0;" edge="1" parent="1" target="-En4X2_4c3ANfAnvm6Ov-10">
          <mxGeometry relative="1" as="geometry">
            <mxPoint x="230" y="370" as="targetPoint" />
            <mxPoint x="270" y="540" as="sourcePoint" />
            <Array as="points">
              <mxPoint x="270" y="541" />
              <mxPoint x="210" y="541" />
              <mxPoint x="210" y="380" />
            </Array>
          </mxGeometry>
        </mxCell>
        <mxCell id="-En4X2_4c3ANfAnvm6Ov-25" style="edgeStyle=orthogonalEdgeStyle;rounded=0;orthogonalLoop=1;jettySize=auto;html=1;" edge="1" parent="1" source="-En4X2_4c3ANfAnvm6Ov-14" target="-En4X2_4c3ANfAnvm6Ov-23">
          <mxGeometry relative="1" as="geometry" />
        </mxCell>
        <mxCell id="-En4X2_4c3ANfAnvm6Ov-14" value="" style="whiteSpace=wrap;html=1;" vertex="1" parent="1">
          <mxGeometry x="270" y="510" width="120" height="60" as="geometry" />
        </mxCell>
        <mxCell id="-En4X2_4c3ANfAnvm6Ov-23" value="" style="ellipse;whiteSpace=wrap;html=1;" vertex="1" parent="1">
          <mxGeometry x="370" y="690" width="80" height="80" as="geometry" />
        </mxCell>
        <mxCell id="-En4X2_4c3ANfAnvm6Ov-26" value="5/2 y el modulo debe ser distinto de 0" style="text;html=1;align=center;verticalAlign=middle;resizable=0;points=[];autosize=1;strokeColor=none;fillColor=none;" vertex="1" parent="1">
          <mxGeometry x="650" y="350" width="230" height="30" as="geometry" />
        </mxCell>
        <mxCell id="-En4X2_4c3ANfAnvm6Ov-27" value="5/3 y el modulo debe ser distinto de 0" style="text;html=1;align=center;verticalAlign=middle;resizable=0;points=[];autosize=1;strokeColor=none;fillColor=none;" vertex="1" parent="1">
          <mxGeometry x="650" y="390" width="230" height="30" as="geometry" />
        </mxCell>
        <mxCell id="-En4X2_4c3ANfAnvm6Ov-28" value="5/4 y el modulo debe ser distinto de 0" style="text;html=1;align=center;verticalAlign=middle;resizable=0;points=[];autosize=1;strokeColor=none;fillColor=none;" vertex="1" parent="1">
          <mxGeometry x="650" y="440" width="230" height="30" as="geometry" />
        </mxCell>
      </root>
    </mxGraphModel>
  </diagram>
</mxfile>
